<svg id="Layer_1" data-name="Layer 1" xmlns="http://www.w3.org/2000/svg" viewBox="0 0 344.67 345.49"><defs><style>.cls-1{fill:#ff0301;}</style></defs><title>Logo_AR_BLK</title><path d="M8,224.85a97.77,97.77,0,0,1-6.12-24.14C-7.43,127,18.08,68.19,80.08,27.14,163.59-28.14,281,4.41,325.74,94.06c36.52,73.23,19.1,159.36-42.73,211.18a172.76,172.76,0,0,1-220.15,1.28c-3.19-2.61-3.41-4.41-1.24-7.67,3.6-5.4,6.9-11,10-16.71,1.58-2.9,2.59-3.42,5.35-1q42.33,36.79,98.49,35.93c64.56-.89,122-47.06,137-110.37A144.23,144.23,0,0,0,196.67,30.74C119.53,17.2,45,68.68,30.57,145.51c-2.35,12.5-3.46,25.08-2.1,37.77a17.4,17.4,0,0,1-2.72,11.77C19.73,204.61,14.14,214.43,8,224.85Z"/><path class="cls-1" d="M36.54,257.76c-1.77-4.95,2.86-7.18,4.64-10.58,3-5.78,6.44-11.35,9.12-17.35C38,245.07,28.43,262.17,15.44,278.47c-.5-5.49-.3-10.09,1.49-13.88,5.38-11.38,11.38-22.47,17.25-33.61,1.93-3.65,4.23-7.1,5.88-11.18l-3.75,3.5c2-4.78,4.26-9.9,7.62-13.06,3.11-2.93,5.68-6.92,5.37-9.39-.81-6.42,3.32-9.94,6.12-14,16.09-23.27,29.4-48.21,44.25-72.21,7.87-12.71,22.32-13.26,30.61-.72,9,13.59,16.89,27.89,25.23,41.9q21.83,36.67,43.59,73.39c2.71,4.57,2.62,4.66-2.6,4.68-11.16,0-22.33-.22-33.49.15-4.47.15-6.87-1.48-9.06-5.14-11.38-19-23-37.85-34.5-56.74-3.52-5.77-4.85-5.83-7.8.12-4.29,8.66-9.49,16.78-14.42,25.06-3,5-4.09,11.11-8.81,15.16-1.45,1.25.22,3.12-.89,4.65-2.09,2.92-2,7.16-6.93,8.35-2.15.52-3.76,4-5.25,6.37-4.95,7.85-11.75,14.25-16.56,22.67-1.5-2.16-.59-2.86.42-3.82.86-.81,2.43-2.18,1-3.29s-2.28.79-2.95,1.75c-3.9,5.6-7.66,11.29-11.53,16.9S38.1,277,34.31,282.46a15.23,15.23,0,0,1-4.17,4.22,4,4,0,0,1-4.2-.05c-1.63-.88.42-2,.3-2.94-.43-3.6,1.6-6.24,3.46-8.82,3.71-5.14,4.45-11.39,6.83-17Zm5.81-8.59c2.88-3.31,5.83-6.65,7.23-11A30.52,30.52,0,0,0,42.35,249.17Z"/><path d="M275.94,234c-13.91,0-26.84,0-39.78,0A3.49,3.49,0,0,1,233,232q-20.19-31.23-40.45-62.42c-2.06-3.15-.19-3.13,2.15-3.12q18.24,0,36.47,0c9,0,15.13-5.59,15.46-14,.34-8.8-5.85-15.7-15-15.83-17.65-.25-35.31-.28-53,0-5.35.09-8.88-1.12-11.59-6.17-3.69-6.86-8.28-13.26-12.65-19.74-1.84-2.72-1.07-3.32,1.83-3.31,25,.09,50-.39,74.94.29,27,.75,49.26,27.92,39.13,59.76-3.09,9.72-11.07,15.17-19.42,19.86-3.17,1.79-3.33,3-1.41,5.87C258.24,206.37,266.73,219.69,275.94,234Z"/><path class="cls-1" d="M36.54,257.76v.09l-8.87,12.32c1.46-5,4.24-9.2,7.38-13.17C35.78,256.06,36.43,256.71,36.54,257.76Z"/></svg>